<svg xmlns="http://www.w3.org/2000/svg" width="181" height="34" viewBox="0 0 181 34">
  <defs>
    <style>
      .cls-1 {
        fill: #fff;
        fill-rule: evenodd;
      }
    </style>
  </defs>
  <path id="LOGLIA" class="cls-1" d="M27.509,21.6H22.277v7.1h-10.9V4.8h5.184V0.052H1.205V4.8H5.621V28.9H1.205v4.752h26.3V21.6Zm30.384,5.328V6.772q0-6.72-6.72-6.72H39.558q-6.721,0-6.72,6.72v20.16q0,6.721,6.72,6.72H51.174q6.72,0,6.72-6.72h0ZM39.006,5.74a1.89,1.89,0,0,1,1.368-.408h9.984a1.892,1.892,0,0,1,1.368.408,1.893,1.893,0,0,1,.408,1.368V26.6a1.89,1.89,0,0,1-.408,1.368,1.889,1.889,0,0,1-1.368.408H40.374a1.887,1.887,0,0,1-1.368-.408A1.887,1.887,0,0,1,38.6,26.6V7.108A1.889,1.889,0,0,1,39.006,5.74Zm51.1,5.016V6.772q0-6.72-6.72-6.72H71.957q-6.721,0-6.72,6.72v20.16q0,6.721,6.72,6.72H83.381q6.72,0,6.72-6.72V15.364H76.9v5.088h7.44V26.6a1.89,1.89,0,0,1-.408,1.368,1.969,1.969,0,0,1-1.416.408H72.773a1.887,1.887,0,0,1-1.368-.408A1.887,1.887,0,0,1,71,26.6V7.108a1.889,1.889,0,0,1,.408-1.368,1.89,1.89,0,0,1,1.368-.408h9.744a1.973,1.973,0,0,1,1.416.408,1.893,1.893,0,0,1,.408,1.368v3.648H90.1ZM121.589,21.6h-5.232v7.1h-10.9V4.8h5.184V0.052H95.285V4.8H99.7V28.9H95.285v4.752h26.3V21.6ZM141.077,4.8V0.052h-15.12V4.8h4.7V28.9h-4.7v4.752h15.12V28.9h-4.656V4.8h4.656Zm35.135,24.1L166.132,0.052h-13.1V4.8h3.888l-8.4,24.1h-3.888v4.752h13.584V28.9h-3.84l1.776-5.28h12.24l1.776,5.28h-3.936v4.752H180.1V28.9h-3.888ZM157.78,18.724l4.512-13.488,4.464,13.488H157.78Z"/>
</svg>
